<svg preserveAspectRatio="xMidYMid meet" overflow="visible" style="display: block;" width="18" height="18" viewBox="0 0 18 18" fill="none" xmlns="http://www.w3.org/2000/svg">
<g id="Icon" clip-path="url(#clip0_0_4)">
<path id="Vector" d="M17.1559 11.7573L12.3771 9L17.1559 6.2427C17.4252 6.0873 17.5173 5.74348 17.3619 5.47418L16.2362 3.52547C16.0808 3.25652 15.7366 3.16406 15.4673 3.31945L10.6886 6.07676V0.5625C10.6886 0.251719 10.4365 0 10.1257 0H7.8743C7.56352 0 7.31145 0.251719 7.31145 0.5625V6.07711L2.53266 3.3198C2.26336 3.16441 1.91918 3.25688 1.76379 3.52582L0.638086 5.47418C0.482695 5.74313 0.574805 6.0873 0.844102 6.2427L5.62289 9L0.844102 11.7573C0.574805 11.9127 0.482695 12.2569 0.638086 12.5258L1.76379 14.4745C1.91918 14.7435 2.26336 14.8356 2.53266 14.6805L7.31145 11.9232V17.4375C7.31145 17.7483 7.56352 18 7.8743 18H10.1257C10.4365 18 10.6886 17.7483 10.6886 17.4375V11.9229L15.4673 14.6802C15.7366 14.8356 16.0808 14.7435 16.2362 14.4742L17.3619 12.5255C17.5173 12.2565 17.4252 11.9127 17.1559 11.7573Z" fill="#00FFF2"/>
</g>
<defs>
<clipPath id="clip0_0_4">
<rect width="18" height="18" fill="white"/>
</clipPath>
</defs>
</svg>
